<svg width="256" height="256" viewBox="0 0 256 256" fill="none" xmlns="http://www.w3.org/2000/svg">
<path d="M162.641 95H171.301C173.445 95 175.426 93.8564 176.497 92C177.569 90.1436 177.569 87.8564 176.497 86L133.196 11C132.124 9.14359 130.144 8 128 8C125.856 8 123.876 9.14359 122.804 11L79.5026 86C78.4308 87.8564 78.4308 90.1436 79.5026 92C80.5744 93.8564 82.5551 95 84.6987 95H93.359L57.8519 156.5C56.7801 158.356 56.7801 160.644 57.8519 162.5C58.9237 164.356 60.9045 165.5 63.0481 165.5H77.4819L36.2013 237C35.1295 238.856 35.1295 241.144 36.2013 243C37.2731 244.856 39.2539 246 41.3975 246H214.603C216.746 246 218.727 244.856 219.799 243C220.87 241.144 220.87 238.856 219.799 237L178.518 165.5H192.952C195.096 165.5 197.076 164.356 198.148 162.5C199.22 160.644 199.22 158.356 198.148 156.5L162.641 95Z" fill="#008000" stroke="white" stroke-width="12" stroke-linejoin="round"/>
</svg>
